<svg xmlns="http://www.w3.org/2000/svg" version="1.0" viewBox="113.12 127.39 797.38 657.61"><path d="M491 127.6c-109.4 6.1-188.8 41.4-250 111.1-33.2 37.8-54.2 77.2-69.1 129.7-2.1 7.7-4 14.1-4.2 14.2-.1.1-4.9 2.6-10.6 5.5-9 4.5-11.7 6.5-19.5 14.3-10.1 10.1-15.9 19.3-20 31.6-4.4 13.2-4.7 20.3-4.4 83 .4 66.9.2 65.1 9.7 84.5 9.9 20 24.9 33 46.1 39.7 10.6 3.3 29.8 3.3 41.4 0 9.9-2.8 22-9.1 28.1-14.4 2.5-2.2 4.7-3.9 4.9-3.7s.9 4 1.6 8.4 2.5 13 4.1 19.1c15.4 60.3 55.4 100.4 118 118.2C407.5 780.3 450.3 785 517 785c62.5 0 101.7-4.1 137.8-14.5 56.9-16.4 94.9-49.8 113.5-99.5 3.8-10.3 9.2-30.4 10.2-38.5.3-2.8.8-6.1 1.1-7.4l.5-2.4 2.7 2.6c3.7 3.4 12.5 8.8 19.8 12 10.2 4.5 18.7 6.1 32.4 6.1 11.6 0 13.2-.2 22.2-3.3 19.4-6.6 34.4-19.8 43.7-38.3 9.9-19.8 9.6-16.9 9.6-89.8 0-62.6-.1-63.6-2.3-71.5-4.8-17.4-14.9-33.3-27.6-43.5-6.3-5-18.7-12.1-23.2-13.2-1.7-.4-2.5-2.3-4.4-9.9-10.8-44.1-33-89.7-60.4-123.9-55.5-69.4-136.5-111.1-234.1-120.5-15.1-1.4-55.5-2.6-67.5-1.9m66 69.8c27.6 3.4 47 7.8 69 15.6 78.6 27.6 133.6 86.6 158.5 170l3.7 12.5-3.3 2.4c-4.4 3.3-13.8 12.9-15.9 16.3l-1.7 2.8-3.3-8.5c-4.1-10.7-14.3-28.7-22-39-8.1-10.8-22.6-25.3-33.5-33.5-41.4-31-100.4-44-200.5-44-114.5 0-179 20.4-219.8 69.4-4.1 5-9.9 12.7-12.8 17.1-5.6 8.6-15.4 27.6-17.3 33.7-1.5 4.5-2.1 4.7-4.3 1-1.7-2.9-9.8-10.9-15.5-15.2l-3.3-2.5 4-13c6.8-22.7 9.7-30.1 19.2-49 11.1-22.1 24.5-40.6 42.9-59.2 28.4-28.8 58.9-47.8 99-61.8 23.4-8.1 46.3-13 75.4-16 17-1.8 64-1.3 81.5.9m8.5 151.6c17.9 1.5 40 4.6 52.5 7.5 28.8 6.6 47.3 15.8 65 32.3 24.7 23 37.8 55.7 43.7 108.7 2.4 21.8 2.3 75.2-.1 97.5-5.3 49.1-17.4 77.7-40.8 96.5-13.6 10.8-28 17.5-49.3 23-32.1 8.3-66.2 11.6-119 11.6-87.7-.1-141-9.1-172.3-29.4-34.5-22.3-48.3-59.9-49.9-136.2-1.5-74.7 8.5-124.9 31.3-156.6 25.5-35.3 64.5-50.8 140.9-55.9 16.5-1.1 80.9-.5 98 1" fill="#ffffff"/><path d="M416 476.9c-6.9 2.1-13 7.3-16.6 14.1-1.7 3.2-1.9 6.6-2.2 38.2-.2 22.6.1 36.1.8 38.7 1.6 6.1 6.8 12.2 12.9 15.3 4.4 2.3 6.8 2.8 12.3 2.8 11.1 0 18.9-4.5 23.3-13.3l2.5-5.1v-72.4l-2.8-5.3c-5.4-10.4-19.2-16.3-30.2-13m177 0c-8.1 2.5-14.8 9-17.4 16.9-1.5 4.4-1.7 9.4-1.4 39.9.3 33.5.4 35 2.5 38.8 4.8 8.9 12.8 13.4 23.9 13.5 12 0 21.4-6.4 24.9-17.1 1.3-3.9 1.5-10.1 1.3-39l-.3-34.4-2.5-4.9c-5.7-11.1-19.4-17.2-31-13.7" fill="#ffffff"/></svg>