<svg id="synerops-logo" xmlns="http://www.w3.org/2000/svg" viewBox="16.149999618530273 -3 631.4800052642822 631.47998046875" width="631.4800052642822" height="631.47998046875"><path d="M391.1,592.63l13.76-32.31c17.13,14.38,44.37,24.62,70.68,24.62,33.34,0,47.41-12.47,47.41-29.11,0-48.3-127.27-16.63-127.27-99.8,0-36.15,27.54-66.86,86.28-66.86,25.7,0,52.62,7,71.28,19.83L540.7,441.32c-19.28-11.85-40.39-17.6-59-17.6-33.05,0-46.51,13.43-46.51,30.4,0,47.66,127,16.63,127,98.84,0,35.81-27.83,66.52-86.57,66.52C442.19,619.48,408.84,608.62,391.1,592.63Z" fill="#000000" style="display: none;"/><path d="M748.9,446.16l-74.4,179c-15,38.59-35.79,50.39-63,50.39-16.22,0-33.34-5.73-43.75-15.63L583,630.59a40.53,40.53,0,0,0,28.15,11.79c13.45,0,21.41-6.7,28.76-23.6l.67-1.63-71.28-171h39.76l51.39,126,51.72-126Z" fill="#000000" style="display: none;"/><path d="M928.82,519.87v98.86H890.58V525c0-30.67-14.38-45.54-38.85-45.54-27.23,0-45.59,17.43-45.59,52v87.24H767.9V446.19h36.41v22.3c12.54-15.84,32.43-24.24,56.29-24.24C899.76,444.25,928.82,467.83,928.82,519.87Z" fill="#000000" style="display: none;"/><path d="M1134.22,544.1H1006c4.58,24.88,24.47,40.83,52.92,40.83,18.36,0,32.74-6.07,44.37-18.51l20.5,24.58c-14.69,18.17-37.64,27.73-65.78,27.73-54.76,0-90.25-36.67-90.25-87.4s35.8-87.08,84.44-87.08c47.72,0,82.6,34.78,82.6,88C1134.84,535.49,1134.53,540.27,1134.22,544.1Zm-128.49-26.49h92.7c-3.06-24.55-21.11-41.45-46.19-41.45C1027.45,476.16,1009.41,492.75,1005.73,517.61Z" fill="#000000" style="display: none;"/><path d="M1268.36,444.25V482.7a47.44,47.44,0,0,0-8.87-1c-29.06,0-47.42,18.09-47.42,53.32v83.68h-38.25V446.19h36.41v25.2C1221.25,453.31,1241.14,444.25,1268.36,444.25Z" fill="#000000" style="display: none;"/><path d="M1287.18,504.34c0-66.21,49-115.17,115.34-115.17s115.34,48.62,115.34,115.17-48.94,115.14-115.34,115.14S1287.18,570.55,1287.18,504.34Zm190.61,0c0-45.74-32.13-78.7-75.27-78.7s-75.26,33-75.26,78.7S1359.38,583,1402.52,583,1477.79,550.08,1477.79,504.34Z" fill="#000000" style="display: none;"/><path d="M1728.86,531.33c0,52.95-35.18,87.4-82.9,87.4-20.81,0-39.16-7.32-52.32-23v80h-38.25V446.16h36.41v22.35c12.85-16.28,31.82-24.26,54.16-24.26C1693.68,444.25,1728.86,478.7,1728.86,531.33Zm-38.85,0c0-32.53-20.81-53.26-48.34-53.26S1593,498.8,1593,531.33s21.1,53.28,48.64,53.28S1690,563.87,1690,531.33Z" fill="#000000" style="display: none;"/><path d="M1746.48,600l14.69-30.15c14.38,9.85,36.4,16.81,56.9,16.81,24.18,0,34.27-7,34.27-18.71,0-32.36-101-1.9-101-69.48,0-32.06,27.84-53,71.9-53,21.72,0,46.5,5.4,61.18,14.6l-14.68,30.15c-15.61-9.51-31.21-12.69-46.81-12.69-23.25,0-34.27,7.94-34.27,19,0,34.27,101,3.81,101,70.13,0,31.72-28.14,52.34-74,52.34C1788.4,619,1761.17,610.78,1746.48,600Z" fill="#000000" style="display: none;"/><circle cx="484.76" cy="159.87" r="152.87" fill="#000000"/><path d="M26.15,159.87A152.87,152.87,0,0,0,179,312.74V7A152.87,152.87,0,0,0,26.15,159.87Z" fill="#000000"/><path d="M179,312.74V618.48a152.87,152.87,0,0,0,0-305.74Z" fill="#000000"/></svg>